<?xml version="1.0" encoding="utf-8"?>
<svg version="1.1" xmlns:xlink="http://www.w3.org/1999/xlink" width="120px" height="108px" xmlns="http://www.w3.org/2000/svg">
  <g transform="matrix(1 0 0 1 -154 -243 )">
    <path d="M 214 255.81525432638165  C 202 244.5  190 244.5  184 244.5  C 172.6 244.5  155.5 254.78275862068966  155.5 274.32  C 155.5 317.57744279374253  214 349.2292302037981  214 349.2292302037981  C 214 349.2292302037981  272.5 317.57744279374253  272.5 274.32  C 272.5 254.78275862068966  255.39999999999998 244.5  244 244.5  C 238 244.5  226 244.5  214 255.81525432638165  Z " fill-rule="nonzero" fill="#ff1d47" stroke="none" />
    <path d="M 214 253.8  C 202 243  190 243  184 243  C 172 243  154 253.8  154 274.32  C 154 318.6  214 351  214 351  C 214 351  274 318.6  274 274.32  C 274 253.8  256 243  244 243  C 238 243  226 243  214 253.8  Z M 214 256.4870057685089  C 226 245  238 245  244 245  C 255.2 245  272 255.1103448275862  272 274.32  C 272 317.23659039165676  214 348.6389736050641  214 348.6389736050641  C 214 348.6389736050641  156 317.23659039165676  156 274.32  C 156 255.1103448275862  172.8 245  184 245  C 190 245  202 245  214 256.4870057685089  Z " fill-rule="nonzero" fill="#ff0000" stroke="none" />
  </g>
</svg>