<?xml version="1.0" encoding="utf-8"?>
<svg version="1.1" xmlns:xlink="http://www.w3.org/1999/xlink" width="265px" height="238px" xmlns="http://www.w3.org/2000/svg">
  <g transform="matrix(1 0 0 1 -510 -679 )">
    <path d="M 642.5 704.8132530807745  C 616 680.5  589.5 680.5  576.25 680.5  C 550.35 680.5  511.5 703.7827586206896  511.5 748.02  C 511.5 844.578098854171  642.5 915.2303663084426  642.5 915.2303663084426  C 642.5 915.2303663084426  773.5 844.578098854171  773.5 748.02  C 773.5 703.7827586206896  734.65 680.5  708.75 680.5  C 695.5 680.5  669 680.5  642.5 704.8132530807745  Z " fill-rule="nonzero" fill="#ff1d47" stroke="none" />
    <path d="M 642.5 702.8  C 616 679  589.5 679  576.25 679  C 549.75 679  510 702.8  510 748.02  C 510 845.6  642.5 917  642.5 917  C 642.5 917  775 845.6  775 748.02  C 775 702.8  735.25 679  708.75 679  C 695.5 679  669 679  642.5 702.8  Z M 642.5 705.4843374410327  C 669 681  695.5 681  708.75 681  C 734.45 681  773 704.1103448275862  773 748.02  C 773 844.2374651388948  642.5 914.6404884112568  642.5 914.6404884112568  C 642.5 914.6404884112568  512 844.2374651388948  512 748.02  C 512 704.1103448275862  550.55 681  576.25 681  C 589.5 681  616 681  642.5 705.4843374410327  Z " fill-rule="nonzero" fill="#ff0000" stroke="none" />
  </g>
</svg>