<?xml version="1.0" encoding="utf-8"?>
<svg version="1.1" xmlns:xlink="http://www.w3.org/1999/xlink" width="25px" height="23px" xmlns="http://www.w3.org/2000/svg">
  <g transform="matrix(1 0 0 1 -20 -1157 )">
    <path d="M 32.5 1161.3364675298174  C 30 1158.5  27.5 1158.5  26.25 1158.5  C 24.35 1158.5  21.5 1160.2827586206897  21.5 1163.67  C 21.5 1172.0704885532004  32.5 1178.2171874945664  32.5 1178.2171874945664  C 32.5 1178.2171874945664  43.5 1172.0704885532004  43.5 1163.67  C 43.5 1160.2827586206897  40.650000000000006 1158.5  38.75 1158.5  C 37.5 1158.5  35 1158.5  32.5 1161.3364675298174  Z " fill-rule="nonzero" fill="#fb617d" stroke="none" />
    <path d="M 32.5 1159.3  C 30 1157  27.5 1157  26.25 1157  C 23.75 1157  20 1159.3  20 1163.67  C 20 1173.1  32.5 1180  32.5 1180  C 32.5 1180  45 1173.1  45 1163.67  C 45 1159.3  41.25 1157  38.75 1157  C 37.5 1157  35 1157  32.5 1159.3  Z M 32.5 1162.0152900397563  C 35 1159  37.5 1159  38.75 1159  C 40.45 1159  43 1160.6103448275862  43 1163.67  C 43 1171.7273180709337  32.5 1177.622916659422  32.5 1177.622916659422  C 32.5 1177.622916659422  22 1171.7273180709337  22 1163.67  C 22 1160.6103448275862  24.55 1159  26.25 1159  C 27.5 1159  30 1159  32.5 1162.0152900397563  Z " fill-rule="nonzero" fill="#ff0000" stroke="none" />
  </g>
</svg>