<?xml version="1.0" encoding="utf-8"?>
<svg version="1.1" xmlns:xlink="http://www.w3.org/1999/xlink" width="25px" height="23px" xmlns="http://www.w3.org/2000/svg">
  <g transform="matrix(1 0 0 1 -172 -1157 )">
    <path d="M 184.5 1161.3364675298174  C 182 1158.5  179.5 1158.5  178.25 1158.5  C 176.35 1158.5  173.5 1160.2827586206897  173.5 1163.67  C 173.5 1172.0704885532004  184.5 1178.2171874945664  184.5 1178.2171874945664  C 184.5 1178.2171874945664  195.5 1172.0704885532004  195.5 1163.67  C 195.5 1160.2827586206897  192.65 1158.5  190.75 1158.5  C 189.5 1158.5  187 1158.5  184.5 1161.3364675298174  Z " fill-rule="nonzero" fill="#fb617d" stroke="none" />
    <path d="M 184.5 1159.3  C 182 1157  179.5 1157  178.25 1157  C 175.75 1157  172 1159.3  172 1163.67  C 172 1173.1  184.5 1180  184.5 1180  C 184.5 1180  197 1173.1  197 1163.67  C 197 1159.3  193.25 1157  190.75 1157  C 189.5 1157  187 1157  184.5 1159.3  Z M 184.5 1162.0152900397563  C 187 1159  189.5 1159  190.75 1159  C 192.45 1159  195 1160.6103448275862  195 1163.67  C 195 1171.7273180709337  184.5 1177.622916659422  184.5 1177.622916659422  C 184.5 1177.622916659422  174 1171.7273180709337  174 1163.67  C 174 1160.6103448275862  176.55 1159  178.25 1159  C 179.5 1159  182 1159  184.5 1162.0152900397563  Z " fill-rule="nonzero" fill="#ff0000" stroke="none" />
  </g>
</svg>