<?xml version="1.0" encoding="utf-8"?>
<svg version="1.1" xmlns:xlink="http://www.w3.org/1999/xlink" width="87px" height="78px" xmlns="http://www.w3.org/2000/svg">
  <g transform="matrix(1 0 0 1 -567 -1952 )">
    <path d="M 610.5 1961.8115968775135  C 601.8 1953.5  593.1 1953.5  588.75 1953.5  C 580.65 1953.5  568.5 1960.7827586206897  568.5 1974.62  C 568.5 2005.5786418007326  610.5 2028.2313065329759  610.5 2028.2313065329759  C 610.5 2028.2313065329759  652.5 2005.5786418007326  652.5 1974.62  C 652.5 1960.7827586206897  640.35 1953.5  632.25 1953.5  C 627.9 1953.5  619.2 1953.5  610.5 1961.8115968775135  Z " fill-rule="nonzero" fill="#fb617d" stroke="none" />
    <path d="M 610.5 1959.8  C 601.8 1952  593.1 1952  588.75 1952  C 580.05 1952  567 1959.8  567 1974.62  C 567 2006.6  610.5 2030  610.5 2030  C 610.5 2030  654 2006.6  654 1974.62  C 654 1959.8  640.95 1952  632.25 1952  C 627.9 1952  619.2 1952  610.5 1959.8  Z M 610.5 1962.482129170018  C 619.2 1954  627.9 1954  632.25 1954  C 640.15 1954  652 1961.1103448275862  652 1974.62  C 652 2005.2381890676434  610.5 2027.641742043968  610.5 2027.641742043968  C 610.5 2027.641742043968  569 2005.2381890676434  569 1974.62  C 569 1961.1103448275862  580.85 1954  588.75 1954  C 593.1 1954  601.8 1954  610.5 1962.482129170018  Z " fill-rule="nonzero" fill="#ff0000" stroke="none" />
  </g>
</svg>