<?xml version="1.0" encoding="utf-8"?>
<svg version="1.1" xmlns:xlink="http://www.w3.org/1999/xlink" width="87px" height="78px" xmlns="http://www.w3.org/2000/svg">
  <g transform="matrix(1 0 0 1 -40 -1952 )">
    <path d="M 83.5 1961.8115968775135  C 74.80000000000001 1953.5  66.1 1953.5  61.75 1953.5  C 53.65 1953.5  41.5 1960.7827586206897  41.5 1974.62  C 41.5 2005.5786418007326  83.5 2028.2313065329759  83.5 2028.2313065329759  C 83.5 2028.2313065329759  125.5 2005.5786418007326  125.5 1974.62  C 125.5 1960.7827586206897  113.35000000000001 1953.5  105.25 1953.5  C 100.9 1953.5  92.19999999999999 1953.5  83.5 1961.8115968775135  Z " fill-rule="nonzero" fill="#fb617d" stroke="none" />
    <path d="M 83.5 1959.8  C 74.80000000000001 1952  66.1 1952  61.75 1952  C 53.05 1952  40 1959.8  40 1974.62  C 40 2006.6  83.5 2030  83.5 2030  C 83.5 2030  127 2006.6  127 1974.62  C 127 1959.8  113.95 1952  105.25 1952  C 100.9 1952  92.19999999999999 1952  83.5 1959.8  Z M 83.5 1962.482129170018  C 92.19999999999999 1954  100.9 1954  105.25 1954  C 113.15 1954  125 1961.1103448275862  125 1974.62  C 125 2005.2381890676434  83.5 2027.641742043968  83.5 2027.641742043968  C 83.5 2027.641742043968  42 2005.2381890676434  42 1974.62  C 42 1961.1103448275862  53.85 1954  61.75 1954  C 66.1 1954  74.80000000000001 1954  83.5 1962.482129170018  Z " fill-rule="nonzero" fill="#ff0000" stroke="none" />
  </g>
</svg>