<?xml version="1.0" encoding="utf-8"?>
<svg version="1.1" xmlns:xlink="http://www.w3.org/1999/xlink" width="25px" height="23px" xmlns="http://www.w3.org/2000/svg">
  <g transform="matrix(1 0 0 1 -81 -1157 )">
    <path d="M 93.5 1161.3364675298174  C 91 1158.5  88.5 1158.5  87.25 1158.5  C 85.35 1158.5  82.5 1160.2827586206897  82.5 1163.67  C 82.5 1172.0704885532004  93.5 1178.2171874945664  93.5 1178.2171874945664  C 93.5 1178.2171874945664  104.5 1172.0704885532004  104.5 1163.67  C 104.5 1160.2827586206897  101.65 1158.5  99.75 1158.5  C 98.5 1158.5  96 1158.5  93.5 1161.3364675298174  Z " fill-rule="nonzero" fill="#fb617d" stroke="none" />
    <path d="M 93.5 1159.3  C 91 1157  88.5 1157  87.25 1157  C 84.75 1157  81 1159.3  81 1163.67  C 81 1173.1  93.5 1180  93.5 1180  C 93.5 1180  106 1173.1  106 1163.67  C 106 1159.3  102.25 1157  99.75 1157  C 98.5 1157  96 1157  93.5 1159.3  Z M 93.5 1162.0152900397563  C 96 1159  98.5 1159  99.75 1159  C 101.45 1159  104 1160.6103448275862  104 1163.67  C 104 1171.7273180709337  93.5 1177.622916659422  93.5 1177.622916659422  C 93.5 1177.622916659422  83 1171.7273180709337  83 1163.67  C 83 1160.6103448275862  85.55 1159  87.25 1159  C 88.5 1159  91 1159  93.5 1162.0152900397563  Z " fill-rule="nonzero" fill="#ff0000" stroke="none" />
  </g>
</svg>