<?xml version="1.0" encoding="utf-8"?>
<svg version="1.1" xmlns:xlink="http://www.w3.org/1999/xlink" width="87px" height="78px" xmlns="http://www.w3.org/2000/svg">
  <g transform="matrix(1 0 0 1 -356 -1952 )">
    <path d="M 399.5 1961.8115968775135  C 390.8 1953.5  382.1 1953.5  377.75 1953.5  C 369.65 1953.5  357.5 1960.7827586206897  357.5 1974.62  C 357.5 2005.5786418007326  399.5 2028.2313065329759  399.5 2028.2313065329759  C 399.5 2028.2313065329759  441.5 2005.5786418007326  441.5 1974.62  C 441.5 1960.7827586206897  429.35 1953.5  421.25 1953.5  C 416.9 1953.5  408.2 1953.5  399.5 1961.8115968775135  Z " fill-rule="nonzero" fill="#fb617d" stroke="none" />
    <path d="M 399.5 1959.8  C 390.8 1952  382.1 1952  377.75 1952  C 369.05 1952  356 1959.8  356 1974.62  C 356 2006.6  399.5 2030  399.5 2030  C 399.5 2030  443 2006.6  443 1974.62  C 443 1959.8  429.95 1952  421.25 1952  C 416.9 1952  408.2 1952  399.5 1959.8  Z M 399.5 1962.482129170018  C 408.2 1954  416.9 1954  421.25 1954  C 429.15 1954  441 1961.1103448275862  441 1974.62  C 441 2005.2381890676434  399.5 2027.641742043968  399.5 2027.641742043968  C 399.5 2027.641742043968  358 2005.2381890676434  358 1974.62  C 358 1961.1103448275862  369.85 1954  377.75 1954  C 382.1 1954  390.8 1954  399.5 1962.482129170018  Z " fill-rule="nonzero" fill="#ff0000" stroke="none" />
  </g>
</svg>