<?xml version="1.0" encoding="utf-8"?>
<svg version="1.1" xmlns:xlink="http://www.w3.org/1999/xlink" width="48px" height="43px" xmlns="http://www.w3.org/2000/svg">
  <g transform="matrix(1 0 0 1 -102 -407 )">
    <path d="M 126 413.31083490899925  C 121.2 408.5  116.4 408.5  114 408.5  C 109.8 408.5  103.5 412.28275862068966  103.5 419.47  C 103.5 436.07889159385553  126 448.2317391015547  126 448.2317391015547  C 126 448.2317391015547  148.5 436.07889159385553  148.5 419.47  C 148.5 412.28275862068966  142.2 408.5  138 408.5  C 135.6 408.5  130.8 408.5  126 413.31083490899925  Z " fill-rule="nonzero" fill="#ff1d47" stroke="none" />
    <path d="M 126 411.3  C 121.2 407  116.4 407  114 407  C 109.2 407  102 411.3  102 419.47  C 102 437.1  126 450  126 450  C 126 450  150 437.1  150 419.47  C 150 411.3  142.8 407  138 407  C 135.6 407  130.8 407  126 411.3  Z M 126 413.981113211999  C 130.8 409  135.6 409  138 409  C 142 409  148 412.61034482758623  148 419.47  C 148 435.7385221251407  126 447.6423188020729  126 447.6423188020729  C 126 447.6423188020729  104 435.7385221251407  104 419.47  C 104 412.61034482758623  110 409  114 409  C 116.4 409  121.2 409  126 413.981113211999  Z " fill-rule="nonzero" fill="#ff0000" stroke="none" />
  </g>
</svg>