<?xml version="1.0" encoding="utf-8"?>
<svg version="1.1" xmlns:xlink="http://www.w3.org/1999/xlink" width="169px" height="151px" xmlns="http://www.w3.org/2000/svg">
  <g transform="matrix(1 0 0 1 -248 -1112 )">
    <path d="M 332.5 1129.1083506211216  C 315.6 1113.5  298.7 1113.5  290.25 1113.5  C 273.95 1113.5  249.5 1128.0827586206897  249.5 1155.79  C 249.5 1216.6797060081203  332.5 1261.233149428696  332.5 1261.233149428696  C 332.5 1261.233149428696  415.5 1216.6797060081203  415.5 1155.79  C 415.5 1128.0827586206897  391.04999999999995 1113.5  374.75 1113.5  C 366.3 1113.5  349.4 1113.5  332.5 1129.1083506211216  Z " fill-rule="nonzero" fill="#ff1d47" stroke="none" />
    <path d="M 332.5 1127.1  C 315.6 1112  298.7 1112  290.25 1112  C 273.35 1112  248 1127.1  248 1155.79  C 248 1217.7  332.5 1263  332.5 1263  C 332.5 1263  417 1217.7  417 1155.79  C 417 1127.1  391.65 1112  374.75 1112  C 366.3 1112  349.4 1112  332.5 1127.1  Z M 332.5 1129.777800828162  C 349.4 1114  366.3 1114  374.75 1114  C 390.85 1114  415 1128.4103448275862  415 1155.79  C 415 1216.3396080108269  332.5 1260.6441992382613  332.5 1260.6441992382613  C 332.5 1260.6441992382613  250 1216.3396080108269  250 1155.79  C 250 1128.4103448275862  274.15 1114  290.25 1114  C 298.7 1114  315.6 1114  332.5 1129.777800828162  Z " fill-rule="nonzero" fill="#ff0000" stroke="none" />
  </g>
</svg>